<?xml version="1.0" encoding="UTF-8" standalone="no"?>
<!-- Created with Inkscape (http://www.inkscape.org/) -->

<svg
   width="51.067356mm"
   height="52.967751mm"
   viewBox="0 0 51.067356 52.967751"
   version="1.1"
   id="svg1"
   xmlns="http://www.w3.org/2000/svg"
   xmlns:svg="http://www.w3.org/2000/svg">
  <defs
     id="defs1" />
  <path
     id="path17"
     style="fill:#0068ff;fill-opacity:1;stroke:none;stroke-width:1.30022;stroke-linecap:round"
     d="M 25.53351,1.8934888e-6 A 25.533754,26.483955 0 0 0 8.1023455,7.1314129 V 45.836345 A 25.533754,26.483955 0 0 0 25.53351,52.967756 25.533754,26.483955 0 0 0 51.067354,26.483706 25.533754,26.483955 0 0 0 25.53351,1.8934888e-6 Z M 17.275793,8.2762469 c 1.41457,0 2.553219,1.181018 2.553219,2.6482351 v 31.118802 c 0,1.467209 -1.138649,2.648227 -2.553219,2.648227 -1.41457,0 -2.553549,-1.181018 -2.553549,-2.648227 V 10.924482 c 0,-1.4672171 1.138979,-2.6482351 2.553549,-2.6482351 z m 11.403061,4.9656071 c 1.41457,0 2.553547,1.181364 2.553547,2.648581 v 21.186896 c 0,1.467209 -1.138977,2.648573 -2.553547,2.648573 -1.41457,0 -2.553222,-1.181364 -2.553222,-2.648573 V 15.890435 c 0,-1.467217 1.138652,-2.648581 2.553222,-2.648581 z M 2.9955765,14.037013 A 25.533754,26.483955 0 0 0 -5.5881471e-7,26.483706 25.533754,26.483955 0 0 0 2.9955765,38.930753 Z m 36.0205155,4.170794 c 1.41457,0 2.553222,1.181026 2.553222,2.648235 v 11.255682 c 0,1.467209 -1.138652,2.648573 -2.553222,2.648573 -1.41457,0 -2.553547,-1.181364 -2.553547,-2.648573 V 20.856042 c 0,-1.467209 1.138977,-2.648235 2.553547,-2.648235 z m 8.738017,4.137949 c 1.41457,0 2.553216,1.181373 2.553216,2.648582 v 2.979428 c 0,1.467217 -1.138646,2.648235 -2.553216,2.648235 -1.414573,0 -2.55355,-1.181018 -2.55355,-2.648235 v -2.979428 c 0,-1.467209 1.138977,-2.648582 2.55355,-2.648582 z" />
</svg>
