<?xml version="1.0" encoding="UTF-8" standalone="no"?>
<!-- Created with Inkscape (http://www.inkscape.org/) -->

<svg
   width="51.067356mm"
   height="52.967762mm"
   viewBox="0 0 51.067356 52.967762"
   version="1.1"
   id="svg1"
   xmlns="http://www.w3.org/2000/svg"
   xmlns:svg="http://www.w3.org/2000/svg">
  <defs
     id="defs1" />
  <path
     id="path15"
     style="fill:#0068ff;fill-opacity:1;stroke:none;stroke-width:1.30022;stroke-linecap:round"
     d="M 25.53351,7.881302e-6 A 25.533754,26.483955 0 0 0 8.1023455,7.1314179 V 45.836358 A 25.533754,26.483955 0 0 0 25.53351,52.967768 25.533754,26.483955 0 0 0 51.067354,26.483718 25.533754,26.483955 0 0 0 25.53351,7.881302e-6 Z M 17.275793,8.2762579 c 1.41457,0 2.553219,1.18102 2.553219,2.6482301 v 31.1188 c 0,1.46721 -1.138649,2.64823 -2.553219,2.64823 -1.41457,0 -2.553549,-1.18102 -2.553549,-2.64823 v -31.1188 c 0,-1.4672101 1.138979,-2.6482301 2.553549,-2.6482301 z m 11.403061,4.9656001 c 1.41457,0 2.553547,1.18137 2.553547,2.64859 v 21.18689 c 0,1.46721 -1.138977,2.64857 -2.553547,2.64857 -1.41457,0 -2.553222,-1.18136 -2.553222,-2.64857 v -21.18689 c 0,-1.46722 1.138652,-2.64859 2.553222,-2.64859 z M 2.9955765,14.037018 A 25.533754,26.483955 0 0 0 -5.5881471e-7,26.483718 25.533754,26.483955 0 0 0 2.9955765,38.930758 Z m 36.0205155,4.1708 c 1.41457,0 2.553222,1.18102 2.553222,2.64823 v 11.25568 c 0,1.46721 -1.138652,2.64858 -2.553222,2.64858 -1.41457,0 -2.553547,-1.18137 -2.553547,-2.64858 v -11.25568 c 0,-1.46721 1.138977,-2.64823 2.553547,-2.64823 z m 8.738017,4.13795 c 1.41457,0 2.553216,1.18137 2.553216,2.64858 v 2.97943 c 0,1.46721 -1.138646,2.64823 -2.553216,2.64823 -1.414573,0 -2.55355,-1.18102 -2.55355,-2.64823 v -2.97943 c 0,-1.46721 1.138977,-2.64858 2.55355,-2.64858 z" />
</svg>
